<svg width="337" height="228" viewBox="0 0 337 228" fill="none" xmlns="http://www.w3.org/2000/svg">
<g clip-path="url(#clip0_382_6804)">
<path d="M137.052 103.263C136.973 104.306 136.894 104.876 136.894 105.445C136.831 115.613 136.783 125.797 136.689 135.965C136.61 145.595 136.736 155.242 136.326 164.856C136.01 172.431 133.641 179.642 130.656 186.584C124.04 201.987 113.807 214.195 98.6951 221.864C77.8981 232.412 53.1217 229.154 35.1197 213.61C21.7446 202.066 13.9437 187.296 10.6434 170.091C9.90119 166.264 9.8854 162.247 9.83803 158.325C9.64853 141.753 9.53799 125.164 9.47483 108.592C9.47483 106.915 9.06426 106.109 7.27985 106.346C6.56925 106.441 5.84285 106.346 5.13225 106.346C3.01623 106.394 1.37394 105.587 0.489634 103.626C-0.394673 101.65 -0.0788488 99.7836 1.34236 98.1232C6.31659 92.3038 11.275 86.4686 16.2493 80.6334C24.4765 70.9871 32.7195 61.3408 40.9151 51.6629C42.3047 50.0183 43.8839 49.3067 46.0472 49.3225C55.0798 49.3857 64.1124 49.3225 73.1449 49.3857C74.4082 49.3857 75.182 49.022 75.9242 47.9625C84.483 35.7544 96.3106 30.6309 110.902 33.0345C125.272 35.4065 136.026 46.2547 138.757 60.4394C140.368 68.8048 139.263 76.8539 134.825 84.3021C134.62 84.65 134.889 85.5039 135.22 85.8993C138.631 89.9792 142.089 94.0274 145.563 98.0757C146.7 99.4041 147.443 100.875 147.016 102.677C146.574 104.559 145.453 105.84 143.511 106.378C141.647 106.9 140.1 106.315 138.757 105.065C138.284 104.623 137.873 104.117 137.068 103.231L137.052 103.263ZM124.04 176.464C123.314 176.891 122.998 177.049 122.714 177.254C117.487 180.986 111.675 181.903 105.485 180.686C100.195 179.658 95.379 177.397 90.7995 174.677C83.7093 170.47 76.7295 166.09 69.7025 161.757C62.3438 157.218 54.4482 155.669 45.9999 157.724C36.3672 160.065 28.7401 165.695 22.0446 172.747C21.6656 173.143 21.6025 174.107 21.7762 174.692C25.345 186.98 31.5351 197.685 41.3415 206.035C53.5954 216.456 67.6812 220.599 83.5513 217.041C96.6896 214.1 106.733 206.351 114.549 195.598C118.687 189.905 121.75 183.675 124.056 176.464H124.04ZM101.901 61.9575C101.395 62.5268 101.111 62.8273 100.843 63.1594C90.1363 76.6641 79.3983 90.1373 68.7392 103.674C67.239 105.571 65.5336 106.457 63.086 106.441C52.1427 106.362 41.1993 106.409 30.256 106.409C27.082 106.409 23.908 106.457 20.7497 106.394C19.4075 106.362 18.918 106.836 19.0127 108.165C19.1075 109.588 19.2812 111.074 19.0443 112.466C18.4126 116.182 20.2286 118.317 23.15 120.167C27.4768 122.903 31.9931 124.5 37.0778 122.919C43.2206 121.005 49.4581 120.31 55.8378 121.227C63.2439 122.286 70.0341 124.911 74.3609 131.253C76.4611 134.32 78.2929 134.985 81.4985 133.767C82.6197 133.34 83.125 132.992 83.1092 131.711C83.046 125.307 83.0776 118.902 83.0776 112.498C83.0776 109.035 84.1198 107.959 87.5149 107.959C96.9107 107.959 106.291 107.959 115.686 107.959C118.987 107.959 120.045 109.019 120.061 112.387C120.061 119.756 120.061 127.109 120.061 134.479C120.061 135.238 120.14 135.981 120.219 137.104C121.182 136.471 121.94 136.107 122.508 135.554C125.303 132.866 126.977 129.481 127.056 125.686C127.309 115.044 127.309 104.385 127.293 93.727C127.293 92.6042 126.788 91.2443 126.061 90.3745C120.55 83.7486 114.928 77.2176 109.338 70.6708C106.907 67.8085 104.459 64.9621 101.901 61.9575ZM126.803 143.983C124.403 144.789 122.271 145.738 120.029 146.228C114.723 147.351 109.686 146.022 104.822 144.014C100.558 142.259 96.1211 141.342 91.5417 141.421C82.4618 141.579 74.2188 144.615 66.4179 149.043C66.0863 149.233 65.8178 149.501 65.6125 149.675C69.0392 151.526 72.4659 153.202 75.7347 155.147C80.4563 157.962 85.0515 161.014 89.7415 163.86C94.6999 166.881 99.7057 169.79 105.296 171.561C110.902 173.332 115.813 172.257 119.966 168.098C121.482 166.58 122.808 164.872 124.245 163.275C126.219 161.077 127.056 158.594 126.819 155.574C126.582 152.664 126.803 149.707 126.819 146.782C126.819 145.849 126.819 144.916 126.819 143.998L126.803 143.983ZM19.7549 161.583L20.2602 161.741C20.9077 161.219 21.5551 160.697 22.2025 160.191C30.6035 153.502 39.8729 148.853 50.7688 147.999C51.432 147.952 52.1111 147.541 52.6796 147.177C55.743 145.2 58.7276 143.113 61.8227 141.199C63.7808 139.982 65.881 139.001 67.9023 137.91C66.7969 135.522 64.3019 133.277 61.27 131.98C54.464 129.086 47.5158 129.086 40.5835 131.284C33.8722 133.419 27.5084 132.755 21.334 129.529C20.8287 129.276 20.3076 129.07 19.7233 128.817V161.583H19.7549ZM128.856 78.2297C132.315 70.0383 132.267 62.258 128.193 54.794C122.871 45.0212 114.407 40.372 103.29 40.625C96.737 40.7832 87.5623 45.2268 85.7937 49.2118C86.5201 49.2118 87.1675 49.2118 87.7992 49.2118C92.2839 49.2118 96.7686 49.2592 101.253 49.196C103.196 49.1644 104.696 49.8443 105.943 51.3308C110.917 57.2293 115.923 63.0961 120.929 68.9629C123.487 71.9517 126.045 74.9405 128.856 78.2139V78.2297ZM101.68 115.091C98.4425 115.091 95.221 115.123 91.9996 115.075C90.689 115.059 90.1994 115.534 90.1994 116.862C90.2468 121.353 90.2626 125.844 90.1994 130.335C90.1679 131.885 90.8311 132.233 92.2365 132.265C94.3209 132.312 96.4685 132.344 98.4582 132.85C102.674 133.909 106.828 135.222 110.981 136.519C112.418 136.961 113.081 136.835 113.049 135.111C112.986 129.07 113.002 123.014 113.049 116.973C113.049 115.581 112.591 115.059 111.186 115.091C108.012 115.154 104.854 115.107 101.68 115.107V115.091Z" fill="#FAF7FD"/>
<path d="M227.33 167.387C226.667 171.245 226.02 175.119 225.356 178.978C224.788 182.267 224.267 185.572 223.635 188.846C223.272 190.743 222.514 191.139 220.24 191.154C218.566 191.154 217.508 190.506 217.24 188.767C215.961 180.876 214.65 172.985 213.371 165.094C212.36 158.847 211.365 152.601 210.339 146.355C209.976 144.156 210.734 143.144 212.881 143.097C216.592 143.002 217.003 143.429 217.508 147.098C218.313 152.886 219.229 158.673 220.114 164.461C220.177 164.92 220.35 165.378 220.84 165.853C221.345 163.022 221.835 160.207 222.34 157.377C223.035 153.376 223.761 149.391 224.409 145.39C224.725 143.477 225.941 143.097 227.63 143.081C229.32 143.081 230.552 143.461 230.867 145.374C231.894 151.557 232.952 157.725 234.01 163.908C234.12 164.524 234.294 165.141 234.815 165.742C235.431 161.694 236.063 157.63 236.663 153.581C237.058 150.925 237.405 148.268 237.816 145.611C238.068 143.983 238.905 142.986 240.705 143.129C241.179 143.16 241.669 143.129 242.142 143.129C244.306 143.176 245.127 143.983 244.827 146.149C244.337 149.881 243.706 153.581 243.121 157.298C241.511 167.434 239.884 177.571 238.305 187.723C237.831 190.743 236.489 191.771 233.489 191.139C232.083 190.838 231.594 189.779 231.389 188.545C230.615 183.959 229.888 179.357 229.13 174.756C228.736 172.305 228.293 169.869 227.883 167.434H227.33V167.387Z" fill="#FAF7FD"/>
<path d="M275.446 110.347H267.329V112.355C267.329 117.447 267.345 122.524 267.329 127.616C267.329 130.082 266.445 130.762 263.46 130.747C261.107 130.731 260.365 130.003 260.365 127.647C260.365 113.652 260.365 99.6413 260.365 85.6463C260.365 83.3059 261.123 82.6417 263.76 82.6259C266.382 82.6259 267.329 83.4008 267.345 85.7096C267.377 90.849 267.345 96.0042 267.345 101.144C267.345 101.792 267.345 102.424 267.345 103.168H275.367C275.398 102.519 275.446 101.887 275.446 101.254C275.446 96.1149 275.446 90.9597 275.446 85.8203C275.446 83.3692 276.267 82.6259 278.873 82.6101C281.62 82.6101 282.426 83.3217 282.426 85.8835C282.426 99.7678 282.426 113.652 282.426 127.536C282.426 130.067 281.636 130.747 278.857 130.747C276.251 130.747 275.462 130.019 275.462 127.536C275.462 121.859 275.462 116.182 275.462 110.347H275.446Z" fill="#FAF7FD"/>
<path d="M273.109 178.187C273.109 178.187 273.109 177.903 273.109 177.602C273.093 174.25 275.525 172.637 278.588 174.155C279.252 174.487 279.725 175.594 279.915 176.432C280.215 177.76 280.089 179.168 280.325 180.528C280.783 183.2 282.41 184.307 285.379 184.149C287.953 184.007 289.137 182.789 289.484 180.117C289.816 177.602 288.821 175.625 287.116 174.028C285.063 172.115 282.789 170.439 280.673 168.604C279.267 167.387 277.846 166.185 276.646 164.793C272.556 160.112 272.193 154.767 274.293 149.185C275.651 145.564 278.541 143.603 282.331 143.208C284.273 143.002 286.31 142.986 288.205 143.382C293.053 144.394 296.022 148.474 296.417 154.246C296.496 155.432 296.496 156.633 296.48 157.835C296.448 159.401 295.706 160.302 294.064 160.286C293.527 160.286 292.99 160.286 292.453 160.286C290.416 160.255 289.784 159.654 289.658 157.645C289.595 156.697 289.548 155.732 289.469 154.783C289.153 151.431 287.021 149.486 284.1 149.913C281.21 150.324 279.331 153.091 280.183 156.222C280.625 157.819 281.51 159.48 282.663 160.666C284.636 162.722 286.942 164.477 289.169 166.295C292.406 168.952 295.422 171.751 296.259 176.1C296.843 179.136 296.669 182.172 295.453 185.066C293.78 189.067 290.463 190.743 286.421 191.059C284.542 191.202 282.584 191.028 280.752 190.585C276.504 189.573 273.804 185.857 273.346 180.86C273.283 180.085 273.235 179.31 273.172 178.219L273.109 178.187Z" fill="#FAF7FD"/>
<path d="M266.145 191.139C263.524 191.139 262.955 190.712 262.355 188.118C261.692 185.208 260.981 182.315 260.444 179.373C260.223 178.14 259.655 177.792 258.518 177.839C257.081 177.903 255.644 177.918 254.223 177.839C253.022 177.76 252.533 178.266 252.296 179.389C251.649 182.489 250.954 185.572 250.212 188.64C249.627 191.028 245.79 192.261 244.053 190.538C243.5 189.984 243.137 188.766 243.311 187.992C246.469 173.918 249.722 159.843 252.975 145.785C253.528 143.429 254.175 143.097 256.828 143.065C258.865 143.034 259.449 144.251 259.828 145.928C262.955 159.717 266.113 173.491 269.256 187.264C269.919 190.142 269.098 191.139 266.129 191.139H266.145ZM256.733 160.223H256.165C255.549 163.749 254.933 167.307 254.317 170.897H258.455C257.855 167.181 257.302 163.702 256.749 160.223H256.733Z" fill="#FAF7FD"/>
<path d="M311.497 130.747C309.065 130.747 308.449 130.288 307.913 127.948C307.234 124.99 306.539 122.017 305.986 119.029C305.765 117.827 305.196 117.432 304.044 117.495C302.607 117.558 301.17 117.558 299.749 117.495C298.596 117.447 298.059 117.827 297.822 119.029C297.222 122.128 296.464 125.196 295.738 128.28C295.201 130.588 293.337 131.427 290.447 130.699C288.931 130.32 288.458 129.118 288.963 126.904C292.121 113.13 295.28 99.3566 298.438 85.5672C298.975 83.2426 299.764 82.5942 301.991 82.6258C304.123 82.6417 304.849 83.2584 305.37 85.5355C308.497 99.2617 311.624 112.972 314.75 126.698C315.461 129.798 314.687 130.747 311.513 130.747H311.497ZM302.259 99.9259L301.628 99.9575C301.028 103.468 300.428 106.979 299.812 110.568H303.949C303.365 106.884 302.812 103.405 302.259 99.9259Z" fill="#FAF7FD"/>
<path d="M227.156 130.747C224.724 130.747 223.998 130.177 223.477 127.789C222.845 124.88 222.166 121.97 221.629 119.029C221.408 117.827 220.871 117.416 219.703 117.479C217.808 117.59 215.423 116.973 214.144 117.906C212.992 118.744 212.992 121.243 212.565 123.014C212.123 124.801 211.791 126.635 211.365 128.422C210.86 130.541 208.933 131.363 206.107 130.683C204.654 130.335 204.085 129.039 204.528 127.062C207.702 113.225 210.891 99.404 214.081 85.5672C214.634 83.1951 215.36 82.5942 217.603 82.61C219.719 82.61 220.492 83.2584 220.998 85.5039C224.14 99.2301 227.267 112.94 230.394 126.667C231.104 129.782 230.315 130.731 227.156 130.731V130.747ZM215.439 110.616H219.608C219.024 106.931 218.455 103.437 217.903 99.9259H217.303C216.703 103.437 216.087 106.931 215.455 110.616H215.439Z" fill="#FAF7FD"/>
<path d="M231.767 106.995C231.957 101.871 231.83 96.9371 232.415 92.0824C233.157 85.9625 237.547 82.5626 243.705 82.6259C249.864 82.6891 253.765 85.9942 254.791 92.1456C255.059 93.7902 255.138 95.4665 255.17 97.1427C255.201 99.0878 254.38 99.8468 252.485 99.9101C251.949 99.9101 251.412 99.9101 250.875 99.9101C249.264 99.9417 248.49 99.1036 248.348 97.5381C248.206 95.9409 248.143 94.3121 247.764 92.7624C247.227 90.5959 245.648 89.4573 243.627 89.4731C241.653 89.4731 239.995 90.6908 239.442 92.7466C239.158 93.8219 239.016 94.9763 239 96.099C238.968 103.152 238.968 110.221 239 117.289C239 118.412 239.142 119.566 239.426 120.642C240.026 122.84 241.621 123.963 243.784 123.883C246.074 123.804 247.385 122.792 247.89 120.404C248.206 118.95 248.222 117.447 248.348 115.961C248.522 113.842 249.311 113.273 252.138 113.32C254.301 113.352 255.249 114.127 255.17 116.135C255.075 118.333 254.996 120.578 254.459 122.682C252.943 128.501 248.901 131.063 242.237 130.731C237.278 130.478 233.094 126.904 232.462 121.622C231.878 116.72 231.973 111.723 231.767 106.995Z" fill="#FAF7FD"/>
<path d="M324.067 97.4116C325.914 93.1894 327.541 89.4732 329.152 85.7728C330.431 82.8473 331.031 82.4678 334.173 82.6259C336.668 82.7524 337.6 84.1757 336.605 86.5003C334.189 92.2248 331.805 97.9493 329.231 103.611C328.062 106.172 327.509 108.734 327.588 111.549C327.73 116.688 327.636 121.844 327.62 126.983C327.62 130.351 325.346 131.885 322.204 130.604C320.924 130.082 320.624 128.96 320.64 127.647C320.672 121.717 320.719 115.803 320.609 109.873C320.577 108.323 320.214 106.678 319.614 105.239C317.087 99.1827 314.403 93.1736 311.797 87.1486C311.497 86.4528 311.213 85.678 311.213 84.9347C311.213 84.3496 311.497 83.5906 311.923 83.211C313.518 81.7562 317.514 82.6576 318.398 84.6501C320.23 88.73 322.03 92.8257 324.051 97.4116H324.067Z" fill="#FAF7FD"/>
<path d="M193.995 97.4274C195.906 93.0628 197.595 89.1885 199.285 85.3142C200.39 82.7998 203.122 81.7403 205.633 82.8789C206.865 83.4324 207.228 84.8398 206.486 86.6267C205.08 89.9792 203.848 93.4424 202.143 96.6367C198.322 103.848 196.569 111.375 197.374 119.535C197.643 122.318 197.437 125.149 197.406 127.963C197.374 130.161 196.585 130.762 193.837 130.747C191.437 130.747 190.694 130.098 190.694 127.932C190.679 121.891 190.742 115.85 190.647 109.809C190.631 108.481 190.347 107.074 189.826 105.856C187.141 99.4831 184.331 93.1419 181.583 86.8007C180.383 84.0333 181.251 82.7049 184.252 82.6417C187.11 82.5784 187.615 82.8947 188.752 85.4723C190.426 89.2834 192.1 93.0945 194.011 97.4432L193.995 97.4274Z" fill="#FAF7FD"/>
<path d="M301.296 167.118C301.296 160.239 301.249 153.344 301.359 146.465C301.375 145.422 301.943 143.666 302.622 143.476C304.059 143.049 305.749 143.271 307.265 143.587C307.723 143.682 308.228 144.947 308.244 145.675C308.307 159.923 308.291 174.171 308.276 188.419C308.276 190.459 307.297 191.154 304.754 191.139C302.307 191.139 301.328 190.379 301.312 188.308C301.28 181.239 301.312 174.186 301.312 167.118H301.296Z" fill="#FAF7FD"/>
<path d="M59.4223 21.7753C60.3382 22.2497 61.412 22.5502 62.17 23.1986C65.6125 26.1399 68.9918 29.1761 72.3553 32.2123C74.2819 33.9518 74.4713 36.3554 72.9238 38.0791C71.4079 39.7554 69.0708 39.8977 67.1758 38.2531C63.607 35.1694 60.1014 32.0225 56.6115 28.8598C55.2693 27.6422 55.0324 26.045 55.6798 24.432C56.2957 22.8665 57.5116 21.9651 59.4223 21.7595V21.7753Z" fill="#FAF7FD"/>
<path d="M149.306 77.7237C149.527 77.7711 150.127 77.8502 150.68 78.0558C154.991 79.6055 159.302 81.1552 163.597 82.7682C165.492 83.4798 166.297 84.8398 166.202 86.7849C166.108 88.5402 165.002 89.9792 163.218 90.3271C162.444 90.4853 161.544 90.4062 160.786 90.1374C156.412 88.6193 152.038 87.0379 147.695 85.4091C145.484 84.5868 144.616 82.8315 145.105 80.5543C145.484 78.8465 147.016 77.7079 149.306 77.7079V77.7237Z" fill="#FAF7FD"/>
<path d="M159.302 32.3388C158.338 33.7146 157.817 35.0746 156.838 35.7862C153.127 38.4903 149.274 41.0205 145.437 43.5664C143.416 44.9106 140.968 44.4836 139.721 42.6651C138.426 40.7991 138.884 38.427 140.921 37.0196C144.758 34.3788 148.627 31.7695 152.496 29.1761C153.854 28.2747 155.417 28.0533 156.696 29.0021C157.691 29.7296 158.291 30.9947 159.302 32.323V32.3388Z" fill="#FAF7FD"/>
<path d="M105.643 16.8415C106.038 12.6193 106.401 8.39706 106.843 4.17483C107.08 1.85024 108.138 0.5219 109.796 0.142374C112.686 -0.521796 115.023 1.28095 114.802 4.28553C114.439 9.17192 113.918 14.0425 113.349 18.9131C113.128 20.8898 111.249 22.1549 109.18 22.0125C107.175 21.8702 105.738 20.4628 105.611 18.4545C105.58 17.9168 105.611 17.3792 105.611 16.8415H105.659H105.643Z" fill="#FAF7FD"/>
<path d="M126.393 28.4169C124.277 28.3695 123.077 26.7565 123.85 25.2858C125.445 22.2813 127.151 19.3241 129.062 16.5093C129.456 15.9242 131.02 15.7186 131.872 15.9717C133.12 16.3196 133.546 17.6795 132.962 18.7865C131.351 21.791 129.598 24.7007 127.782 27.5946C127.467 28.1007 126.63 28.2904 126.377 28.4327L126.393 28.4169Z" fill="#FAF7FD"/>
<path d="M164.023 57.0237C163.929 58.3995 163.218 59.1901 161.939 59.4115C158.828 59.965 155.717 60.5501 152.59 60.9771C151.359 61.151 150.364 60.5027 150.111 59.1743C149.843 57.8302 150.301 56.66 151.69 56.3911C154.959 55.7586 158.26 55.2367 161.576 54.8256C163.076 54.6358 163.818 55.6637 164.023 57.0395V57.0237Z" fill="#FAF7FD"/>
<path d="M83.6617 11.3066C83.9933 11.6229 84.9092 12.1448 85.304 12.9354C86.583 15.5447 87.7042 18.2488 88.8254 20.9371C89.3623 22.2496 89.4097 23.578 87.9253 24.337C86.583 25.0486 85.225 24.4161 84.4986 22.8031C83.3301 20.2097 82.1457 17.6004 81.0561 14.9596C80.235 12.9513 81.1667 11.3383 83.6617 11.3066Z" fill="#FAF7FD"/>
<path d="M64.3017 202.556C73.3185 203.758 79.7139 199.63 83.4248 190.032C86.283 191.139 89.1412 192.261 92.0152 193.384C87.12 204.027 72.9868 207.806 64.2859 202.556H64.3017Z" fill="#FAF7FD"/>
<path d="M50.5476 181.714C48.7158 181.176 45.2733 180.322 41.9256 179.168C40.0148 178.504 39.399 176.732 40.1254 175.119C40.7728 173.665 42.4783 173.095 44.2785 173.918C49.5053 176.305 54.6849 176.638 59.9275 173.902C61.554 173.048 63.1805 173.665 63.9227 175.088C64.6965 176.574 64.1122 178.219 62.391 179.104C59.2169 180.749 55.8218 181.571 50.5318 181.714H50.5476Z" fill="#FAF7FD"/>
<path d="M103.196 97.7594C100.843 101.46 98.9477 102.424 96.6422 101.191C94.3051 99.9417 93.9893 97.1901 95.6632 93.1577C94.1156 92.3037 92.4576 91.6396 91.0837 90.5959C89.2361 89.1727 88.7624 87.3225 89.5046 85.8993C90.2626 84.4286 92.2365 83.6537 94.3525 84.0016C95.3473 84.1598 96.3264 84.3653 97.3528 84.5551C97.3528 82.8789 97.2739 81.2975 97.3686 79.732C97.4634 78.1348 98.1266 76.7274 99.8163 76.3953C101.537 76.0474 102.453 77.3441 103.085 78.6566C103.732 79.985 104.111 81.4398 104.664 82.9579C105.596 82.3412 106.528 81.6296 107.522 81.0761C109.196 80.1431 110.933 79.9375 112.544 81.2343C114.186 82.5626 114.265 84.4128 113.634 86.1523C113.049 87.7336 111.96 89.1252 111.06 90.6908C113.886 95.1976 114.139 97.712 111.865 99.831C109.781 101.776 107.917 101.349 103.196 97.7911V97.7594ZM104.633 92.3986C104.98 91.94 105.833 91.2442 106.038 90.4061C106.37 88.9987 104.822 87.4806 103.338 87.528C102.106 87.5597 101.316 88.1764 101.222 89.4573C101.111 90.8647 102.564 92.367 104.633 92.4144V92.3986Z" fill="#FAF7FD"/>
</g>
<defs>
<clipPath id="clip0_382_6804">
<rect width="337" height="228" fill="white"/>
</clipPath>
</defs>
</svg>
