<svg width="17" height="13" viewBox="0 0 17 13" fill="none" xmlns="http://www.w3.org/2000/svg">
<path d="M16.9696 1.45066C16.9696 1.91804 16.8143 2.36637 16.506 2.79357C16.1954 3.22076 15.8127 3.58664 15.3513 3.88694C12.9768 5.435 11.5003 6.39937 10.9196 6.77792C10.8565 6.82022 10.7238 6.90902 10.5167 7.0486C10.3119 7.18818 10.1408 7.30028 10.0058 7.38699C9.87072 7.4737 9.7064 7.56887 9.51283 7.67672C9.31927 7.78246 9.13922 7.86283 8.96817 7.91781C8.79711 7.97069 8.63956 7.99818 8.49551 7.99818H8.47749C8.33119 7.99818 8.17364 7.97069 8.00483 7.91781C7.83603 7.86494 7.6537 7.78458 7.46014 7.67672C7.26882 7.57098 7.10453 7.4737 6.96724 7.38699C6.83219 7.30028 6.66113 7.18818 6.45631 7.0486C6.25149 6.90902 6.11643 6.82022 6.05341 6.77792C5.47947 6.39937 4.65118 5.85796 3.57307 5.15584C2.4927 4.45372 1.84673 4.03075 1.63291 3.88694C1.24128 3.63739 0.872172 3.2948 0.525555 2.85914C0.178937 2.42349 0.00561523 2.01956 0.00561523 1.64523C0.00561523 1.18209 0.136159 0.797194 0.399499 0.488429C0.660587 0.179664 1.03421 0.0252686 1.52037 0.0252686H15.4571C15.8667 0.0252686 16.2224 0.164843 16.5217 0.444C16.8211 0.723157 16.9719 1.0573 16.9719 1.44854L16.9696 1.45066ZM16.9696 4.0667V11.1302C16.9696 11.5215 16.8211 11.8556 16.524 12.1348C16.2269 12.4139 15.8712 12.5535 15.4549 12.5535H1.51815C1.10176 12.5535 0.746137 12.4139 0.449036 12.1348C0.151936 11.8556 0.00561523 11.5215 0.00561523 11.1302V4.0667C0.282459 4.35643 0.602067 4.61656 0.962189 4.84073C3.24671 6.29996 4.8155 7.32354 5.66854 7.91146C6.02866 8.16101 6.32127 8.35558 6.54409 8.49304C6.76917 8.63262 7.06626 8.77432 7.43989 8.92024C7.81127 9.06405 8.16013 9.13805 8.47974 9.13805H8.49774C8.8196 9.13805 9.16621 9.06405 9.53984 8.92024C9.91122 8.77432 10.2106 8.63262 10.4334 8.49304C10.6585 8.35346 10.9488 8.1589 11.309 7.91146C12.3826 7.18185 13.9536 6.15827 16.0243 4.84073C16.3844 4.61022 16.6995 4.3522 16.9719 4.0667H16.9696Z" fill="#EB036B"/>
</svg>
