<svg width="490" height="401" viewBox="0 0 490 401" fill="none" xmlns="http://www.w3.org/2000/svg">
<path d="M442 0H48C31.1984 0 22.7976 0 16.3803 3.2698C10.7354 6.14601 6.14601 10.7354 3.2698 16.3803C0 22.7976 0 31.1984 0 48V353C0 369.802 0 378.202 3.2698 384.62C6.14601 390.265 10.7354 394.854 16.3803 397.73C22.7976 401 31.1984 401 48 401H442C458.802 401 467.202 401 473.62 397.73C479.265 394.854 483.854 390.265 486.73 384.62C490 378.202 490 369.802 490 353V48C490 31.1984 490 22.7976 486.73 16.3803C483.854 10.7354 479.265 6.14601 473.62 3.2698C467.202 0 458.802 0 442 0Z" fill="#040C33"/>
</svg>
