<svg width="233" height="190" viewBox="0 0 233 190" fill="none" xmlns="http://www.w3.org/2000/svg">
<path d="M195.732 66.9548C210.811 72.758 259.758 118.107 203.956 129.866C203.956 129.866 179.056 135.023 181.047 166.908C181.711 177.532 164.107 197.823 140.517 179.843C129.82 171.694 109.972 153.385 87.0637 173.963C64.1552 194.542 32.4357 157.501 45.3585 146.329C58.2812 135.158 30.6735 119.142 22.45 113.404C10.8489 105.307 -12.2064 85.7695 17.7508 56.9595C47.7081 28.1495 43.984 27.9672 51.8198 17.5662C61.6646 4.49587 81.1897 -4.77625 117.021 12.2746C117.021 12.2746 140.517 26.9736 136.405 46.9642C132.293 66.9548 179.408 60.6577 195.732 66.9548Z" stroke="#00839A" stroke-width="4.70047" stroke-miterlimit="10"/>
</svg>
