<svg width="227" height="156" viewBox="0 0 227 156" fill="none" xmlns="http://www.w3.org/2000/svg">
<path d="M191.719 54.5939C206.605 59.4365 254.928 97.2798 199.838 107.093C199.838 107.093 175.256 111.396 177.222 138.003C177.877 146.869 160.498 163.801 137.209 148.797C126.649 141.997 107.054 126.718 84.4385 143.891C61.8226 161.063 30.5083 130.153 43.2659 120.831C56.0236 111.508 28.7686 98.1434 20.65 93.3547C9.1971 86.5985 -13.5638 70.2945 16.0109 46.2529C45.5855 22.2114 41.909 22.0593 49.6448 13.3799C59.3638 2.47286 78.6396 -5.26459 114.013 8.96406C114.013 8.96406 137.209 21.2301 133.15 37.912C129.09 54.5939 175.604 49.3391 191.719 54.5939Z" stroke="#FA685E" stroke-width="2.89948" stroke-miterlimit="10"/>
</svg>
