<svg width="15" height="14" viewBox="0 0 15 14" fill="none" xmlns="http://www.w3.org/2000/svg">
<path d="M14.1511 10.6834C14.1511 10.8442 14.1196 11.0535 14.0565 11.3115C13.9935 11.5695 13.926 11.7726 13.8585 11.9206C13.7257 12.2167 13.3408 12.5318 12.7038 12.8638C12.1119 13.1662 11.5244 13.3185 10.9437 13.3185C10.7749 13.3185 10.6061 13.3079 10.4418 13.2868C10.2775 13.2656 10.0974 13.2297 9.8971 13.1768C9.69903 13.1239 9.55048 13.0816 9.45145 13.0478C9.35466 13.0161 9.17911 12.9547 8.92703 12.8659C8.67494 12.7771 8.51962 12.7242 8.46335 12.7052C7.84439 12.4979 7.29295 12.2505 6.80678 11.9671C6.0055 11.4976 5.17272 10.8568 4.30842 10.0448C3.44412 9.23266 2.76214 8.45018 2.26247 7.6973C1.95862 7.2405 1.6975 6.72026 1.47692 6.1408C1.45892 6.08792 1.40042 5.94199 1.30589 5.70513C1.21136 5.46827 1.14606 5.30332 1.1123 5.21238C1.07854 5.11933 1.03352 4.97976 0.975003 4.79365C0.918734 4.60755 0.878215 4.43624 0.857958 4.28186C0.835451 4.12747 0.824219 3.97098 0.824219 3.81026C0.824219 3.26463 0.986253 2.71265 1.30811 2.15645C1.66149 1.55795 1.99687 1.1942 2.31198 1.07154C2.46954 1.00598 2.68561 0.944652 2.96021 0.885437C3.2348 0.826222 3.45762 0.796631 3.62868 0.796631C3.71646 0.796631 3.78399 0.805089 3.82675 0.822008C3.93929 0.85796 4.10809 1.08212 4.32867 1.49874C4.39845 1.61083 4.49298 1.77156 4.61227 1.97881C4.73156 2.18606 4.84184 2.37429 4.94313 2.54348C5.04441 2.71266 5.14121 2.87128 5.23574 3.01931C5.256 3.04258 5.31002 3.11658 5.4023 3.24135C5.49458 3.36613 5.56211 3.47187 5.60487 3.55858C5.64989 3.64317 5.67238 3.72778 5.67238 3.81237C5.67238 3.9308 5.58236 4.07884 5.4023 4.25648C5.22223 4.43413 5.02642 4.59696 4.81485 4.74711C4.60327 4.89515 4.40746 5.05164 4.2274 5.21871C4.04733 5.38367 3.95729 5.52114 3.95729 5.62688C3.95729 5.67975 3.97306 5.74742 4.00457 5.82778C4.03608 5.90814 4.06309 5.9695 4.0856 6.00968C4.1081 6.05197 4.15086 6.12174 4.21838 6.22325C4.28591 6.32265 4.31967 6.37976 4.32642 6.39245C4.80583 7.20454 5.35504 7.90243 5.974 8.48189C6.59297 9.06347 7.33345 9.57948 8.2 10.0299C8.21126 10.0363 8.27204 10.0701 8.38007 10.1315C8.48811 10.1949 8.56464 10.2351 8.60741 10.2562C8.65242 10.2774 8.71544 10.3028 8.80097 10.3324C8.8865 10.362 8.95629 10.3768 9.01481 10.3768C9.12735 10.3768 9.27363 10.2922 9.44919 10.123C9.62701 9.95381 9.79356 9.76983 9.95111 9.57103C10.1087 9.37224 10.2842 9.18825 10.4733 9.01907C10.6624 8.84988 10.8199 8.76527 10.946 8.76527C11.036 8.76527 11.126 8.78643 11.2161 8.82873C11.3083 8.87103 11.4186 8.93448 11.5537 9.01907C11.6865 9.10578 11.7653 9.15653 11.79 9.17556C11.9476 9.26439 12.1164 9.35531 12.2964 9.45047C12.4765 9.54564 12.6768 9.64929 12.8974 9.76137C13.118 9.87346 13.289 9.96228 13.4106 10.0278C13.8517 10.2351 14.0903 10.3916 14.1308 10.4994C14.1488 10.5417 14.1578 10.6031 14.1578 10.6856L14.1511 10.6834Z" fill="#EB036B"/>
</svg>
