<svg width="9" height="14" viewBox="0 0 9 14" fill="none" xmlns="http://www.w3.org/2000/svg">
<path d="M4.48435 2.05682C4.55412 2.05682 4.61039 2.03568 4.65541 1.99338C4.70042 1.95108 4.72291 1.89821 4.72291 1.83265C4.72291 1.76709 4.70042 1.71422 4.65541 1.67192C4.61039 1.62963 4.55412 1.60848 4.48435 1.60848C3.7596 1.60848 3.14289 1.84958 2.63196 2.32753C2.12104 2.80759 1.86669 3.38705 1.86669 4.06802C1.86669 4.13358 1.88921 4.18645 1.93423 4.22875C1.97924 4.27104 2.03549 4.29219 2.10526 4.29219C2.17504 4.29219 2.23131 4.27104 2.27632 4.22875C2.32134 4.18645 2.34386 4.13358 2.34386 4.06802C2.34386 3.51394 2.55319 3.03811 2.97183 2.64475C3.39048 2.25139 3.89464 2.05471 4.48435 2.05471V2.05682ZM1.79243 1.53869C2.53518 0.840798 3.43323 0.489746 4.48435 0.489746C5.53546 0.489746 6.43351 0.838683 7.17852 1.53869C7.92352 2.23869 8.29489 3.0804 8.29489 4.07014C8.29489 5.05987 7.92352 5.90156 7.17852 6.59945C6.43576 7.29946 5.53546 7.64842 4.48435 7.64842C3.43323 7.64842 2.53518 7.29946 1.79243 6.59945C1.04742 5.90156 0.676025 5.05776 0.676025 4.07014C0.676025 3.08251 1.04742 2.23869 1.79243 1.53869ZM3.53227 7.99102C3.84063 8.06081 4.15573 8.09676 4.48435 8.09676C4.81296 8.09676 5.13031 8.06081 5.43642 7.99102V12.5696C5.43642 12.6901 5.38915 12.7959 5.29462 12.8847C5.20009 12.9735 5.08755 13.0179 4.95926 13.0179H4.00718C3.87889 13.0179 3.76635 12.9735 3.67182 12.8847C3.57729 12.7959 3.53002 12.6901 3.53002 12.5696V7.99102H3.53227Z" fill="#EB036B"/>
</svg>
